# xmcd
#
# Track frame offsets:
#	150
#	25419
#	44873
#	66668
#	85152
#	103607
#	130825
#	156674
#	175292
#	202979
#	226624
#	240816
#	247067
#	277426
#	306625
#	328563
#
# Disc length: 4757 seconds
#
# Revision: 0
# Processed by: cddbd v1.5.2PL0 Copyright (c) Steve Scherf et al.
# Submitted via: audiograbber 1.83.01
#
DISCID=f1129310
DTITLE=Taylor Swift - Speak Now - World Tour Live
DYEAR=2011
DGENRE=Country
TTITLE0=Sparks Fly (Live)
TTITLE1=Mine (Live)
TTITLE2=The Story Of Us (Live)
TTITLE3=Mean (Live)
TTITLE4=Ours (Live)
TTITLE5=Medley: Back To December/Apologize/You're Not Sorry (Live)
TTITLE6=Better Than Revenge (Live)
TTITLE7=Speak Now (Live)
TTITLE8=Last Kiss (Live)
TTITLE9=Drops Of Jupiter (Live)
TTITLE10=Bette Davis Eyes (Live)
TTITLE11=I Want You Back (Live)
TTITLE12=Dear John (Live)
TTITLE13=Enchanted (Live)
TTITLE14=Haunted (Live)
TTITLE15=Long Live (Live)
EXTD=
EXTT0=
EXTT1=
EXTT2=
EXTT3=
EXTT4=
EXTT5=
EXTT6=
EXTT7=
EXTT8=
EXTT9=
EXTT10=
EXTT11=
EXTT12=
EXTT13=
EXTT14=
EXTT15=
PLAYORDER=
